<?xml version="1.0" encoding="iso-8859-1"?>
<!-- Generator: Adobe Illustrator 21.0.0, SVG Export Plug-In . SVG Version: 6.00 Build 0)  -->
<svg version="1.1" id="Layer_1" xmlns="http://www.w3.org/2000/svg" xmlns:xlink="http://www.w3.org/1999/xlink" x="0px" y="0px"
	 viewBox="0 0 100.353 100.353" style="enable-background:new 0 0 100.353 100.353;" xml:space="preserve">
<path style="fill:#231F20;" d="M81.889,99.988c-2.868,0-5.507-0.953-7.413-2.918L49.692,71.546L24.158,96.33
	c-2.301,2.237-5.586,3.144-9.256,2.55c-3.506-0.567-6.968-2.456-9.749-5.316c-2.782-2.866-4.569-6.385-5.033-9.91
	c-0.486-3.687,0.519-6.948,2.826-9.184l25.523-24.788L3.68,24.147c-4.492-4.63-3.244-13.159,2.781-19.012
	c6.03-5.848,14.588-6.838,19.077-2.211l24.794,25.528L75.857,3.669c4.637-4.494,13.167-3.248,19.016,2.775
	c5.85,6.029,6.842,14.594,2.211,19.092L71.56,50.32l24.778,25.524l0,0c4.493,4.631,3.251,13.162-2.77,19.016
	C90.094,98.231,85.781,99.988,81.889,99.988z M49.722,68.029c0.38,0,0.76,0.148,1.045,0.442L76.566,95.04
	c3.378,3.48,10.094,2.463,14.974-2.268c4.869-4.734,6.084-11.417,2.709-14.896L68.456,51.307c-0.56-0.577-0.547-1.499,0.03-2.06
	l26.569-25.798c3.478-3.38,2.46-10.097-2.272-14.973C88.051,3.604,81.37,2.387,77.885,5.762L51.316,31.559
	c-0.576,0.561-1.499,0.547-2.06-0.03L23.448,4.955C20.077,1.479,13.367,2.498,8.489,7.227C3.617,11.96,2.396,18.642,5.769,22.12
	l25.803,26.579c0.56,0.577,0.547,1.499-0.03,2.06L4.973,76.562c-1.63,1.58-2.328,3.963-1.966,6.713
	c0.382,2.908,1.886,5.841,4.233,8.26c2.347,2.414,5.233,4.001,8.125,4.47c2.737,0.443,5.136-0.184,6.76-1.764l26.58-25.799
	C48.991,68.166,49.356,68.029,49.722,68.029z"/>
</svg>
