<?xml version="1.0" encoding="utf-8"?>
<!-- Generator: Adobe Illustrator 23.0.3, SVG Export Plug-In . SVG Version: 6.00 Build 0)  -->
<svg version="1.1" id="Layer_1" xmlns="http://www.w3.org/2000/svg" xmlns:xlink="http://www.w3.org/1999/xlink" x="0px" y="0px"
	 viewBox="0 0 24 24" style="enable-background:new 0 0 24 24;" xml:space="preserve">
<style type="text/css">
	.st0{fill:url(#SVGID_1_);}
	.st1{fill:url(#SVGID_2_);}
	.st2{fill:url(#SVGID_3_);}
	.st3{fill:url(#SVGID_4_);}
	.st4{fill:url(#SVGID_5_);}
	.st5{fill:url(#SVGID_6_);}
	.st6{fill:url(#SVGID_7_);}
	.st7{fill:url(#SVGID_8_);}
	.st8{fill:url(#SVGID_9_);}
	.st9{fill:url(#SVGID_10_);}
	.st10{fill:url(#SVGID_11_);}
	.st11{fill:url(#SVGID_12_);}
	.st12{fill:url(#SVGID_13_);}
	.st13{fill:url(#SVGID_14_);}
	.st14{fill:url(#SVGID_15_);}
	.st15{fill:url(#SVGID_16_);}
	.st16{fill:url(#SVGID_17_);}
	.st17{fill:url(#SVGID_18_);}
	.st18{fill:url(#SVGID_19_);}
	.st19{fill:url(#SVGID_20_);}
	.st20{fill:url(#SVGID_21_);}
	.st21{fill:url(#SVGID_22_);}
	.st22{fill:url(#SVGID_23_);}
	.st23{fill:url(#SVGID_24_);}
	.st24{fill:url(#SVGID_25_);}
	.st25{fill:url(#SVGID_26_);}
	.st26{fill:url(#SVGID_27_);}
	.st27{fill:url(#SVGID_28_);}
	.st28{fill:url(#SVGID_29_);}
	.st29{fill:url(#SVGID_30_);}
	.st30{fill:url(#SVGID_31_);}
	.st31{fill:url(#SVGID_32_);}
	.st32{fill:url(#SVGID_33_);}
	.st33{fill:url(#SVGID_34_);}
	.st34{fill:url(#SVGID_35_);}
	.st35{fill:url(#SVGID_36_);}
	.st36{fill:url(#SVGID_37_);}
	.st37{fill:url(#SVGID_38_);}
	.st38{fill:url(#SVGID_39_);}
	.st39{fill:url(#SVGID_40_);}
	.st40{fill:url(#SVGID_41_);}
	.st41{fill:url(#SVGID_42_);}
	.st42{fill:url(#SVGID_43_);}
	.st43{fill:url(#SVGID_44_);}
	.st44{fill:url(#SVGID_45_);}
	.st45{fill:url(#SVGID_46_);}
	.st46{fill:url(#SVGID_47_);}
	.st47{fill:url(#SVGID_48_);}
	.st48{fill:url(#SVGID_49_);}
	.st49{fill:url(#SVGID_50_);}
	.st50{fill:url(#SVGID_51_);}
	.st51{fill:url(#SVGID_52_);}
	.st52{fill:url(#SVGID_53_);}
	.st53{fill:url(#SVGID_54_);}
	.st54{fill:url(#SVGID_55_);}
	.st55{fill:url(#SVGID_56_);}
	.st56{fill:url(#SVGID_57_);}
	.st57{fill:url(#SVGID_58_);}
	.st58{fill:url(#SVGID_59_);}
	.st59{fill:url(#SVGID_60_);}
	.st60{fill:url(#SVGID_61_);}
	.st61{fill:url(#SVGID_62_);}
	.st62{fill:url(#SVGID_63_);}
	.st63{fill:url(#SVGID_64_);}
	.st64{fill:url(#SVGID_65_);}
	.st65{fill:url(#SVGID_66_);}
	.st66{fill:url(#SVGID_67_);}
	.st67{fill:url(#SVGID_68_);}
	.st68{fill:url(#SVGID_69_);}
	.st69{fill:url(#SVGID_70_);}
	.st70{fill:url(#SVGID_71_);}
	.st71{fill:url(#SVGID_72_);}
	.st72{fill:url(#SVGID_73_);}
	.st73{fill:url(#SVGID_74_);}
	.st74{fill:url(#SVGID_75_);}
	.st75{fill:url(#SVGID_76_);}
	.st76{fill:url(#SVGID_77_);}
	.st77{fill:url(#SVGID_78_);}
	.st78{fill:url(#SVGID_79_);}
	.st79{fill:url(#SVGID_80_);}
	.st80{fill:url(#SVGID_81_);}
	.st81{fill:url(#SVGID_82_);}
	.st82{fill:url(#SVGID_83_);}
	.st83{fill:url(#SVGID_84_);}
	.st84{fill:url(#SVGID_85_);}
	.st85{fill:url(#SVGID_86_);}
	.st86{fill:url(#SVGID_87_);}
	.st87{fill:url(#SVGID_88_);}
	.st88{fill:url(#SVGID_89_);}
	.st89{fill:url(#SVGID_90_);}
	.st90{fill:url(#SVGID_91_);}
	.st91{fill:url(#SVGID_92_);}
	.st92{fill:url(#SVGID_93_);}
	.st93{fill:url(#SVGID_94_);}
	.st94{fill:url(#SVGID_95_);}
	.st95{fill:url(#SVGID_96_);}
	.st96{fill:url(#SVGID_97_);}
	.st97{fill:url(#SVGID_98_);}
	.st98{fill:url(#SVGID_99_);}
	.st99{fill:url(#SVGID_100_);}
	.st100{fill:url(#SVGID_101_);}
	.st101{fill:url(#SVGID_102_);}
	.st102{fill:url(#SVGID_103_);}
	.st103{fill:url(#SVGID_104_);}
	.st104{fill:url(#SVGID_105_);}
	.st105{fill:url(#SVGID_106_);}
	.st106{fill:url(#SVGID_107_);}
	.st107{fill:url(#SVGID_108_);}
	.st108{fill:url(#SVGID_109_);}
	.st109{fill:url(#SVGID_110_);}
	.st110{fill:url(#SVGID_111_);}
	.st111{fill:url(#SVGID_112_);}
	.st112{fill:url(#SVGID_113_);}
	.st113{fill:url(#SVGID_114_);}
</style>
<g>
	<g>
		<g>
			<linearGradient id="SVGID_1_" gradientUnits="userSpaceOnUse" x1="9.5126" y1="18.3506" x2="9.9221" y2="18.3506">
				<stop  offset="0" style="stop-color:#1245C6"/>
				<stop  offset="1" style="stop-color:#9909B7"/>
			</linearGradient>
			<path class="st0" d="M9.7,18.2c-0.1,0-0.2,0.1-0.2,0.2c0,0.1,0.1,0.1,0.2,0.1c0.1,0,0.2-0.1,0.2-0.2C9.9,18.2,9.8,18.2,9.7,18.2z
				"/>
			<linearGradient id="SVGID_2_" gradientUnits="userSpaceOnUse" x1="8.7709" y1="18.441" x2="9.1874" y2="18.441">
				<stop  offset="0" style="stop-color:#1245C6"/>
				<stop  offset="1" style="stop-color:#9909B7"/>
			</linearGradient>
			<path class="st1" d="M9,18.3c-0.1,0-0.2,0-0.2,0.1c0,0.1,0.1,0.2,0.2,0.1c0.1,0,0.2,0,0.2-0.1C9.2,18.3,9.1,18.3,9,18.3z"/>
			<linearGradient id="SVGID_3_" gradientUnits="userSpaceOnUse" x1="7.9789" y1="18.3205" x2="8.3983" y2="18.3205">
				<stop  offset="0" style="stop-color:#1245C6"/>
				<stop  offset="1" style="stop-color:#9909B7"/>
			</linearGradient>
			<path class="st2" d="M8,18.3c0,0.1,0,0.2,0.2,0.2c0.1,0.1,0.2,0,0.2-0.1c0-0.1,0-0.2-0.2-0.2C8.1,18.1,8,18.2,8,18.3z"/>
			<linearGradient id="SVGID_4_" gradientUnits="userSpaceOnUse" x1="2.7007" y1="12.3078" x2="22.0846" y2="12.3078">
				<stop  offset="0" style="stop-color:#1245C6"/>
				<stop  offset="1" style="stop-color:#9909B7"/>
			</linearGradient>
			<path class="st3" d="M21,3.7c-0.7-0.7-1.6-1.1-2.6-1.1H6.3c-1,0-1.9,0.4-2.6,1.1C3.1,4.4,2.7,5.2,2.7,6.3v12.1
				c0,1,0.4,1.9,1.1,2.6C4.5,21.6,5.3,22,6.3,22h2.8c0.2,0,0.3,0,0.4,0c0.1,0,0.2-0.1,0.3-0.2c0.1-0.1,0.1-0.2,0.1-0.4
				c0,0,0-0.3,0-0.9c0-0.5,0-1,0-1.3l-0.3,0.1c-0.2,0-0.4,0-0.7,0c-0.3,0-0.6,0-0.9-0.1c-0.3-0.1-0.6-0.2-0.8-0.4
				c-0.3-0.2-0.4-0.5-0.6-0.8l-0.1-0.3c-0.1-0.2-0.2-0.4-0.4-0.6c-0.2-0.2-0.4-0.4-0.5-0.5l-0.1-0.1c-0.1,0-0.1-0.1-0.2-0.2
				c-0.1-0.1-0.1-0.1-0.1-0.2c0-0.1,0-0.1,0.1-0.1c0.1,0,0.2-0.1,0.4-0.1l0.3,0c0.2,0,0.4,0.1,0.6,0.3c0.2,0.2,0.5,0.4,0.6,0.7
				c0.2,0.3,0.4,0.6,0.7,0.8c0.3,0.2,0.5,0.3,0.8,0.3s0.5,0,0.7-0.1c0.2,0,0.4-0.1,0.6-0.2c0.1-0.6,0.3-1,0.6-1.3
				c-0.5-0.1-0.9-0.1-1.3-0.2c-0.4-0.1-0.8-0.3-1.2-0.5c-0.4-0.2-0.7-0.5-1-0.8c-0.3-0.3-0.5-0.8-0.7-1.3c-0.2-0.5-0.3-1.2-0.3-1.9
				c0-1,0.3-1.9,1-2.6C6.9,8.4,6.9,7.6,7.3,6.6c0.2-0.1,0.6,0,1.1,0.2C8.9,7,9.2,7.2,9.4,7.3C9.7,7.4,9.8,7.5,10,7.6
				c0.8-0.2,1.6-0.3,2.4-0.3c0.8,0,1.6,0.1,2.4,0.3l0.5-0.3c0.3-0.2,0.7-0.4,1.2-0.6c0.4-0.2,0.8-0.2,1-0.1c0.4,1,0.4,1.8,0.1,2.6
				c0.7,0.7,1,1.6,1,2.6c0,0.7-0.1,1.3-0.3,1.9c-0.2,0.6-0.4,1-0.7,1.3c-0.3,0.3-0.6,0.6-1,0.8c-0.4,0.2-0.8,0.4-1.2,0.5
				c-0.4,0.1-0.8,0.2-1.3,0.2c0.4,0.4,0.7,1,0.7,1.8v3c0,0.1,0,0.3,0.1,0.3c0,0.1,0.1,0.1,0.2,0.2c0.1,0,0.2,0.1,0.2,0.1
				c0.1,0,0.2,0,0.3,0h2.8c1,0,1.9-0.4,2.6-1.1c0.7-0.7,1.1-1.6,1.1-2.6V6.3C22.1,5.2,21.7,4.4,21,3.7z"/>
			<linearGradient id="SVGID_5_" gradientUnits="userSpaceOnUse" x1="6.4985" y1="16.8475" x2="6.803" y2="16.8475">
				<stop  offset="0" style="stop-color:#1245C6"/>
				<stop  offset="1" style="stop-color:#9909B7"/>
			</linearGradient>
			<path class="st4" d="M6.5,16.7c-0.1,0-0.1,0.1,0,0.2C6.6,17,6.7,17,6.8,17c0.1,0,0.1-0.1,0-0.2C6.7,16.7,6.6,16.7,6.5,16.7z"/>
			<linearGradient id="SVGID_6_" gradientUnits="userSpaceOnUse" x1="6.1121" y1="16.4783" x2="6.3819" y2="16.4783">
				<stop  offset="0" style="stop-color:#1245C6"/>
				<stop  offset="1" style="stop-color:#9909B7"/>
			</linearGradient>
			<path class="st5" d="M6.1,16.4c0,0.1,0,0.1,0.1,0.2c0.1,0,0.1,0,0.2,0c0-0.1,0-0.1-0.1-0.2C6.2,16.4,6.1,16.4,6.1,16.4z"/>
			<linearGradient id="SVGID_7_" gradientUnits="userSpaceOnUse" x1="6.8716" y1="17.3711" x2="7.1998" y2="17.3711">
				<stop  offset="0" style="stop-color:#1245C6"/>
				<stop  offset="1" style="stop-color:#9909B7"/>
			</linearGradient>
			<path class="st6" d="M6.9,17.2c-0.1,0-0.1,0.1,0,0.2c0.1,0.1,0.1,0.1,0.2,0.1c0.1-0.1,0.1-0.1,0-0.2C7.1,17.2,7,17.2,6.9,17.2z"
				/>
			<linearGradient id="SVGID_8_" gradientUnits="userSpaceOnUse" x1="7.3237" y1="17.9235" x2="7.7134" y2="17.9235">
				<stop  offset="0" style="stop-color:#1245C6"/>
				<stop  offset="1" style="stop-color:#9909B7"/>
			</linearGradient>
			<path class="st7" d="M7.4,17.8c-0.1,0.1-0.1,0.1,0.1,0.2c0.1,0.1,0.2,0.1,0.3,0c0.1-0.1,0.1-0.1-0.1-0.2
				C7.5,17.7,7.4,17.7,7.4,17.8z"/>
		</g>
	</g>
</g>
</svg>
